<svg id="Layer_1" data-name="Layer 1" xmlns="http://www.w3.org/2000/svg" viewBox="0 0 92.01855 92.88"><defs><style>.cls-1{fill:#ffe43c;}</style></defs><title>footstep</title><path d="M44.16,96.64c-.45487-.12354-.90741-.25658-1.365-.36918A11.41919,11.41919,0,0,1,34.408,82.31408a14.75584,14.75584,0,0,1,7.2346-9.84315c1.898-1.11107,3.25072-.38688,3.48435,1.80971a11.2055,11.2055,0,0,0,10.26148,9.6376c.59591.06027,1.19552.08365,1.79332.12554,1.77716.12454,2.6052,1.32264,1.92425,2.98348a14.83952,14.83952,0,0,1-11.16549,9.363c-.30389.06606-.60048.16571-.90047.24973ZM41.70973,77.3986a9.90579,9.90579,0,0,0-3.33219,9.9225,7.32167,7.32167,0,0,0,6.96523,5.42442c3.20273.21526,7.61305-2.28338,8.82822-5.04906C48.23772,86.42761,43.76829,83.35836,41.70973,77.3986Z" transform="translate(-4.22145 -3.76)"/><path d="M96.24,44.8a4.632,4.632,0,0,0-.22666.78291,2.13331,2.13331,0,0,1-3.8102,1.46331q-3.171-2.56492-6.34805-5.12237c-3.67-2.9653-7.36405-5.902-10.98065-8.93108a3.32025,3.32025,0,0,1-1.08173-2.07564c-.07413-.9795.81333-1.44621,1.70287-1.74417,5.13431-1.71973,10.1568-1.81992,14.83294,1.28816a13.334,13.334,0,0,1,5.677,9.2371A6.87543,6.87543,0,0,0,96.24,40.48Zm-4.06436-2.82506c.09543-6.58382-6.87815-12.14172-12.04968-9.729Z" transform="translate(-4.22145 -3.76)"/><path d="M52.8,3.76c1.04914.18967,2.11208.32341,3.14513.57828a13.34533,13.34533,0,0,1,10.26815,12.2372,28.45108,28.45108,0,0,1-.21439,5.35585,1.92213,1.92213,0,0,1-3.29955,1.26473Q53.67785,15.9735,44.70924,8.685a1.89839,1.89839,0,0,1,.65024-3.50463c1.62147-.52149,3.3193-.80569,4.98375-1.19324.33821-.07875.67781-.15157,1.01677-.22713Zm9.53965,14.12758c.0346-6.60786-6.16383-11.5631-12.17705-9.8318Z" transform="translate(-4.22145 -3.76)"/><path d="M70.4224,33.99883a8.88972,8.88972,0,0,1,1.43953.77832q9.53384,7.65993,19.03762,15.35723c1.31222,1.06164,1.4461,1.56173.914,3.11284a26.00653,26.00653,0,0,1-4.3895,7.92287c-1.11,1.37826-2.11853,1.50387-3.47973.40616Q72.9311,52.69481,61.93447,43.79278c-1.285-1.03994-1.39919-2.06866-.34969-3.27859a26.18115,26.18115,0,0,1,7.42277-5.98727A11.41758,11.41758,0,0,1,70.4224,33.99883ZM85.31719,57.64717c.80594-1.543,1.55861-2.89957,2.20914-4.30346a1.16913,1.16913,0,0,0-.26341-1.07075q-8.259-6.74394-16.585-13.40545a1.139,1.139,0,0,0-1.02441-.16369c-1.34476.94708-2.63083,1.97751-4.0243,3.04834Z" transform="translate(-4.22145 -3.76)"/><path d="M40.54493,9.88738a7.698,7.698,0,0,1,1.39631.72886q9.62586,7.73562,19.22711,15.50189a2.29764,2.29764,0,0,1,.80865,2.84819,26.30885,26.30885,0,0,1-4.5648,8.22978,2.05,2.05,0,0,1-3.23377.34782Q43.01756,28.56027,31.8865,19.53963a1.88636,1.88636,0,0,1-.28564-3.01988,25.77776,25.77776,0,0,1,7.69478-6.21038A8.98912,8.98912,0,0,1,40.54493,9.88738ZM35.7467,17.63083,55.414,33.50354c.77393-1.44931,1.44777-2.75576,2.16592-4.03739.36245-.64682.21865-1.04532-.35671-1.50186-3.194-2.53439-6.35621-5.1088-9.52922-7.66962-2.48537-2.00587-4.9706-4.0119-7.56056-6.10234Z" transform="translate(-4.22145 -3.76)"/><path d="M58.21458,45.41438a11.27532,11.27532,0,0,1,1.65606.89014q11.02107,8.8673,22.01211,17.772c1.29115,1.04575,1.42663,2.28923.13086,3.32985-2.13671,1.716-4.41187,3.26314-6.66668,4.82664a2.05326,2.05326,0,0,1-2.64589-.25881Q63.24489,64.31746,53.7707,56.68309a2.04131,2.04131,0,0,1-.77927-2.63216c1.13836-2.45,2.28377-4.90034,3.54993-7.2849C56.84788,46.18876,57.6338,45.86605,58.21458,45.41438Zm.54767,5.01879c-.50633,1.06023-.90743,1.96577-1.36642,2.84094-.38566.73538-.19466,1.1862.45431,1.69242,2.45389,1.91415,4.85649,3.894,7.27941,5.84792,3.1022,2.50168,6.20548,5.002,9.36714,7.55033l3.45941-2.43273Z" transform="translate(-4.22145 -3.76)"/><path d="M53.20913,41.57065c-.36428.6327-.53705,1.28918-.96281,1.61263-2.24778,1.70766-4.53288,3.37-6.86282,4.96366a2.02977,2.02977,0,0,1-2.54916-.29445q-9.45961-7.65278-18.93908-15.281a2.08313,2.08313,0,0,1-.794-2.64256c1.14068-2.49318,2.296-4.98785,3.61853-7.38642.72541-1.31556,1.97528-1.406,3.16116-.45152q11.11312,8.94464,22.19229,17.93132A7.834,7.834,0,0,1,53.20913,41.57065ZM28.85932,26.29316c-.5385,1.16761-1.05324,2.15723-1.43647,3.19541a1.20816,1.20816,0,0,0,.28721,1.07573Q35.827,37.19067,44.01074,43.73477a1.13877,1.13877,0,0,0,1.01971.14457c1.01578-.60424,1.96941-1.31293,3.05835-2.061Z" transform="translate(-4.22145 -3.76)"/><path d="M15.68844,72.44011c-7.85511-.01-13.086-7.05512-11.01031-14.88622a14.68318,14.68318,0,0,1,7.3225-9.34251c1.54965-.86752,2.98365-.20069,3.15937,1.5186.71908,7.03605,6.67589,9.99394,11.68421,10.18567,2.38828.09143,3.1343,1.23229,2.21419,3.43772A14.78652,14.78652,0,0,1,15.68844,72.44011Zm-3.875-19.222A9.97244,9.97244,0,0,0,8.6153,63.59939a7.21456,7.21456,0,0,0,6.6553,4.96738c3.58107.17523,7.71725-2.10062,9.04249-4.98848C18.39777,62.30431,13.91042,59.2806,11.81339,53.21808Z" transform="translate(-4.22145 -3.76)"/><path class="cls-1" d="M41.70973,77.3986c2.05856,5.95976,6.528,9.029,12.46126,10.29786-1.21517,2.76568-5.62549,5.26432-8.82822,5.04906a7.32167,7.32167,0,0,1-6.96523-5.42442A9.90579,9.90579,0,0,1,41.70973,77.3986Z" transform="translate(-4.22145 -3.76)"/><path class="cls-1" d="M92.17564,41.97494,80.126,32.246C85.29749,29.83322,92.27107,35.39112,92.17564,41.97494Z" transform="translate(-4.22145 -3.76)"/><path class="cls-1" d="M62.33965,17.88758,50.1626,8.05578C56.17582,6.32448,62.37425,11.27972,62.33965,17.88758Z" transform="translate(-4.22145 -3.76)"/><path class="cls-1" d="M85.31719,57.64717l-19.688-15.895c1.39347-1.07083,2.67954-2.10126,4.0243-3.04834a1.139,1.139,0,0,1,1.02441.16369q8.322,6.6661,16.585,13.40545a1.16913,1.16913,0,0,1,.26341,1.07075C86.8758,54.7476,86.12313,56.10416,85.31719,57.64717Z" transform="translate(-4.22145 -3.76)"/><path class="cls-1" d="M35.7467,17.63083l4.38669-3.4385c2.59,2.09044,5.07519,4.09647,7.56056,6.10234,3.173,2.56082,6.33523,5.13523,9.52922,7.66962.57536.45654.71916.855.35671,1.50186-.71815,1.28163-1.392,2.58808-2.16592,4.03739Z" transform="translate(-4.22145 -3.76)"/><path class="cls-1" d="M58.76225,50.43317,77.9561,65.93205l-3.45941,2.43273c-3.16166-2.54832-6.26494-5.04865-9.36714-7.55033-2.42292-1.95389-4.82552-3.93377-7.27941-5.84792-.649-.50622-.84-.957-.45431-1.69242C57.85482,52.39894,58.25592,51.4934,58.76225,50.43317Z" transform="translate(-4.22145 -3.76)"/><path class="cls-1" d="M28.85932,26.29316,48.0888,41.81837c-1.08894.748-2.04257,1.45673-3.05835,2.061a1.13877,1.13877,0,0,1-1.01971-.14457q-8.18-6.54836-16.30068-13.17047a1.20816,1.20816,0,0,1-.28721-1.07573C27.80608,28.45039,28.32082,27.46077,28.85932,26.29316Z" transform="translate(-4.22145 -3.76)"/><path class="cls-1" d="M11.81339,53.21808c2.097,6.06252,6.58438,9.08623,12.4997,10.36021-1.32524,2.88786-5.46142,5.16371-9.04249,4.98848a7.21456,7.21456,0,0,1-6.6553-4.96738A9.97244,9.97244,0,0,1,11.81339,53.21808Z" transform="translate(-4.22145 -3.76)"/></svg>