<svg id="Calque_1" data-name="Calque 1" xmlns="http://www.w3.org/2000/svg" viewBox="0 0 448 447.952"><defs><style>.cls-1{fill:none;stroke:#000;}.cls-1,.cls-2,.cls-3,.cls-4{stroke-linecap:round;stroke-linejoin:round;stroke-width:32px;}.cls-2{fill:#ffcc7c;}.cls-2,.cls-4{stroke:#fc3;}.cls-3,.cls-4{fill:#fc3;}.cls-3{stroke:#ffcc3d;}</style></defs><title>map-outline</title><path class="cls-1" d="M313.3,124.6,198.7,51.4a32.21,32.21,0,0,0-29.3.3L56.5,127.5A16.06,16.06,0,0,0,48,141.6V437.4a16.047,16.047,0,0,0,16,16,15.20914,15.20914,0,0,0,7.5-1.9l97.8-63.8a31.72434,31.72434,0,0,1,29.5-.2l111.9,73a32.2058,32.2058,0,0,0,29.3-.1l115.4-75.9a15.99933,15.99933,0,0,0,8.6-14.2V74.6a16.047,16.047,0,0,0-16-16,15.209,15.209,0,0,0-7.5,1.9l-98,63.9A32.30428,32.30428,0,0,1,313.3,124.6Z" transform="translate(-32 -32.02341)"/><line class="cls-1" x1="288.12726" y1="248.08237" x2="352.25453" y2="183.9551"/><line class="cls-1" x1="206.51075" y1="201.44436" x2="253.14876" y2="248.08237"/><line class="cls-1" x1="95.74547" y1="277.23112" x2="171.53224" y2="201.44436"/><circle class="cls-2" cx="369.74378" cy="166.46585" r="17.48925"/><circle class="cls-3" cx="270.63801" cy="265.57162" r="17.48925"/><circle class="cls-4" cx="189.02149" cy="183.9551" r="17.48925"/><circle class="cls-4" cx="78.25622" cy="294.72038" r="17.48925"/></svg>