<svg id="Calque_1" data-name="Calque 1" xmlns="http://www.w3.org/2000/svg" viewBox="0 0 104.4 115.9"><defs><style>.cls-1{fill:#ffe43c;}</style></defs><title>time</title><circle class="cls-1" cx="52.2" cy="63.8" r="45.13928"/><path d="M12.3,70.2a52.2,52.2,0,1,0,89.2-36.8l4.1-4.1,1.9,1.9a4.10417,4.10417,0,0,0,5.8,0,4.10417,4.10417,0,0,0,0-5.8l-9.5-9.5A4.10122,4.10122,0,0,0,98,21.7l1.9,1.9-4.5,4.5a51.65466,51.65466,0,0,0-26.7-9.9V14.7h9.1a4.1,4.1,0,0,0,0-8.2h-27a4.1,4.1,0,1,0,0,8.2h9.7v3.5A52.2271,52.2271,0,0,0,12.3,70.2Zm52.2-44A44.1,44.1,0,1,1,20.4,70.3,44.17159,44.17159,0,0,1,64.5,26.2Z" transform="translate(-12.3 -6.5)"/><path d="M64.5,73.6H82a4.1,4.1,0,0,0,0-8.2H68.6V44.3a4.1,4.1,0,1,0-8.2,0V69.6A4.03417,4.03417,0,0,0,64.5,73.6Z" transform="translate(-12.3 -6.5)"/></svg>